<svg width="396" height="125" viewBox="0 0 396 125" fill="none" xmlns="http://www.w3.org/2000/svg">
<path d="M272.718 20.3454C271.816 15.836 261.043 13.7541 258.169 12.8793C231.843 4.86719 204.667 -0.455861 177.5 2.49987C142.163 6.34452 107.426 9.61467 73.5 20.3454C44.6414 29.4731 27.0289 38.6002 7.99988 63.4999C-8.09634 84.5619 11.2272 103.894 26.2439 107.353C45.8986 111.88 65.9575 114.85 86.0198 116.781C143.879 122.351 203.352 126.073 261.423 122.62C298.943 120.389 342.179 115.435 375.04 94.9097C384.072 89.2688 396.346 77.3631 394.28 64.5671C392.429 53.1004 374.068 40.5849 365.563 35.9305C319.934 10.9571 277.607 4.61562 228 9.49988C178.675 14.3564 182.733 13.333 134.5 23.9999" stroke="#272727" stroke-width="2" stroke-linecap="round"/>
</svg>
