<svg width="396" height="119" viewBox="0 0 396 119" fill="none" xmlns="http://www.w3.org/2000/svg">
<path d="M281.539 13.467C233.307 2.15013 178.923 -3.31868 128.545 9.03959C100.537 15.9102 80.252 26.5426 69.7124 39.0282C53.7375 57.9526 44.4357 80.1765 77.4497 96.9096C101.928 109.316 140.646 114.407 179.056 114.147C230.702 113.798 288.464 107.018 330.882 94.932C358.384 87.0961 375.45 73.9417 375.7 60.2799C375.995 44.1585 346.344 29.2557 313.364 21.5545C274.356 12.4457 226.937 11.9703 183.217 13.408C139.906 14.8323 95.5865 19.9762 59.2014 29.8486C33.2221 36.8976 7.35774 48.8618 2.85065 61.8147C-3.15177 79.0652 23.3653 95.223 58.6174 103.905C142.835 124.646 271.977 119.816 350.152 95.9946C377.073 87.7916 398.615 73.1619 393.145 59.0697C388.222 46.3845 360.019 37.1291 338.036 28.8746" stroke="#272727" stroke-width="3" stroke-linecap="round"/>
</svg>
