<svg width="84" height="65" viewBox="0 0 84 65" fill="none" xmlns="http://www.w3.org/2000/svg">
<path d="M30.9844 34.4432V32.8452L36.6413 23.9091H37.9006V26.2614H37.1016L33.0554 32.6662V32.7685H40.8089V34.4432H30.9844ZM37.1911 37V33.9574L37.2038 33.2287V23.9091H39.0767V37H37.1911Z" fill="#272727"/>
<path d="M83 15.1411C70.709 6.47248 53.5269 2.38496 38.7281 2.20466C29.7814 2.09566 21.3115 3.9937 14.5013 10.09C12.3494 12.0162 10.3804 14.1846 8.72864 16.5582C6.52195 19.7292 1.47584 29.8565 1.09242 33.7916C-0.391735 49.0236 16.3268 55.4959 27.7283 59.116C40.8127 63.2706 61.1794 67.8366 73.7274 58.6589C80.8329 53.4619 81.2675 42.8044 78.841 35.3458C73.4284 18.7086 56.5932 8.6999 40.8417 3.87315C31.4169 0.985095 16.9526 -1.97329 9.31954 7.09584C3.5623 13.9362 3.38986 26.572 4.77417 34.7287C6.56291 45.2684 12.2886 56.6136 22.592 61.2645C34.8324 66.7897 47.4295 60.4208 56.8868 52.8078C64.1264 46.9801 72.221 38.3809 72.182 28.2605C72.1717 25.5958 70.3466 20.049 67.7048 18.5238C65.9627 16.9718 64.7043 15.6408 62.5 14.3099" stroke="#272727" stroke-width="2" stroke-linecap="round"/>
</svg>
