<svg width="84" height="65" viewBox="0 0 84 65" fill="none" xmlns="http://www.w3.org/2000/svg">
<path d="M35.5803 37.179C34.7791 37.179 34.0589 37.0256 33.4197 36.7188C32.7848 36.4077 32.2777 35.9815 31.8984 35.4403C31.5192 34.8991 31.3168 34.2812 31.2912 33.5866H33.2088C33.2557 34.1491 33.505 34.6115 33.9567 34.9737C34.4084 35.3359 34.9496 35.517 35.5803 35.517C36.0831 35.517 36.5284 35.402 36.9162 35.1719C37.3082 34.9375 37.6151 34.6158 37.8366 34.2067C38.0625 33.7976 38.1754 33.331 38.1754 32.8068C38.1754 32.2741 38.0604 31.799 37.8303 31.3814C37.6001 30.9638 37.2827 30.6357 36.8778 30.397C36.4773 30.1584 36.017 30.0369 35.4972 30.0327C35.1009 30.0327 34.7024 30.1009 34.3018 30.2372C33.9013 30.3736 33.5774 30.5526 33.3303 30.7741L31.5213 30.5057L32.2564 23.9091H39.4538V25.603H33.8991L33.4837 29.2656H33.5604C33.8161 29.0185 34.1548 28.8118 34.5767 28.6456C35.0028 28.4794 35.4588 28.3963 35.9446 28.3963C36.7415 28.3963 37.451 28.5859 38.0732 28.9652C38.6996 29.3445 39.1918 29.8622 39.5497 30.5185C39.9119 31.1705 40.0909 31.9205 40.0866 32.7685C40.0909 33.6165 39.8991 34.3729 39.5114 35.0376C39.1278 35.7024 38.5952 36.2266 37.9134 36.6101C37.2358 36.9893 36.4581 37.179 35.5803 37.179Z" fill="#272727"/>
<path d="M83 15.1411C70.709 6.47248 53.5269 2.38496 38.7281 2.20466C29.7814 2.09566 21.3115 3.9937 14.5013 10.09C12.3494 12.0162 10.3804 14.1846 8.72864 16.5582C6.52195 19.7292 1.47584 29.8565 1.09242 33.7916C-0.391735 49.0236 16.3268 55.4959 27.7283 59.116C40.8127 63.2706 61.1794 67.8366 73.7274 58.6589C80.8329 53.4619 81.2675 42.8044 78.841 35.3458C73.4284 18.7086 56.5932 8.6999 40.8417 3.87315C31.4169 0.985094 16.9526 -1.97329 9.31954 7.09584C3.5623 13.9362 3.38986 26.572 4.77417 34.7287C6.56291 45.2684 12.2886 56.6136 22.592 61.2645C34.8324 66.7896 47.4295 60.4208 56.8868 52.8078C64.1264 46.98 72.221 38.3809 72.182 28.2605C72.1718 25.5958 70.3466 20.049 67.7048 18.5238C65.9627 16.9718 64.7043 15.6408 62.5 14.3099" stroke="#272727" stroke-width="2" stroke-linecap="round"/>
</svg>
