<svg width="557" height="256" viewBox="0 0 557 256" fill="none" xmlns="http://www.w3.org/2000/svg">
<path d="M396.349 27.1278C328.308 2.32898 251.588 -9.65484 180.519 17.4259C141.008 32.4816 112.391 55.7803 97.5229 83.1399C74.9868 124.609 61.8646 173.309 108.438 209.976C142.969 237.162 197.591 248.318 251.776 247.749C324.634 246.983 406.119 232.126 465.959 205.642C504.757 188.472 528.831 159.646 529.184 129.709C529.601 94.3821 487.771 61.7256 441.245 44.8499C386.216 24.8898 319.321 23.8479 257.645 26.9984C196.547 30.1195 134.024 41.3913 82.6949 63.0247C46.0454 78.4712 9.55824 104.688 3.20003 133.072C-5.26768 170.873 32.1404 206.28 81.871 225.305C200.678 270.756 382.86 260.171 493.144 207.971C531.12 189.996 561.511 157.937 553.794 127.057C546.849 99.26 507.063 78.9785 476.05 60.8903" stroke="#272727" stroke-width="3" stroke-linecap="round"/>
</svg>
