<svg width="214" height="198" viewBox="0 0 214 198" fill="none" xmlns="http://www.w3.org/2000/svg">
<path d="M120.5 24C98.5 18 94.4805 19.2082 71.5006 27C22.314 43.6777 -21.1718 111.815 15.0519 150.881C41.723 179.644 84.5922 204.198 124.5 194C163.856 183.943 190.889 148.769 194.698 108.393C197.859 74.8977 182.566 43.8734 156.303 23.1126C129.538 1.955 93.284 1.75334 63.3361 16.2244C14.5603 39.7931 -22.4039 100.643 28.848 146.5C50.7401 166.088 66.4496 176.973 94.5 175C130.78 172.448 175.648 164.828 198.055 133.386C215.926 108.31 216.636 78.666 206.174 50.4828C194.011 17.7191 165.315 -1.63003 129.567 1.28964C78.2693 5.47918 38.4321 36.6103 25.4291 83C19.8673 102.842 21.6632 133.368 25.4291 153.685C27.1112 162.76 29.791 171.735 33.6087 180.141" stroke="#272727" stroke-width="2" stroke-linecap="round"/>
</svg>
